<svg width="64" height="64" viewBox="0 0 64 64" fill="none" xmlns="http://www.w3.org/2000/svg">
  <!-- Fundo Pino (Dark Green) -->
  <path d="M32 2C18.7452 2 8 12.7452 8 26C8 42 32 62 32 62C32 62 56 42 56 26C56 12.7452 45.2548 2 32 2Z" fill="#111827" stroke="#22C55E" stroke-width="2"/>

  <!-- Mascote Robô -->
  <rect x="22" y="14" width="20" height="16" rx="4" fill="#4ADE80"/>
  <circle cx="28" cy="20" r="2" fill="#111827"/>
  <circle cx="36" cy="20" r="2" fill="#111827"/>

  <!-- Objeto: Dois documentos ligados -->
  <rect x="22" y="32" width="10" height="12" rx="1" fill="white"/>
  <rect x="34" y="36" width="10" height="12" rx="1" fill="white"/>
  <path d="M28 44C28 44 28 46 30 46C32 46 32 44 32 44C32 44 32 42 34 42C36 42 36 44 36 44" stroke="#4ADE80" stroke-width="2" stroke-linecap="round"/>

  <!-- Crachá Rosa -->
  <path d="M12 48H52V56C52 58.2091 50.2091 60 48 60H16C13.7909 60 12 58.2091 12 56V48Z" fill="#FB7185" stroke="#22C55E" stroke-width="2"/>
</svg>
