<svg width="64" height="64" viewBox="0 0 64 64" fill="none" xmlns="http://www.w3.org/2000/svg">
  <!-- Fundo Pino (Dark Green) -->
  <path d="M32 2C18.7452 2 8 12.7452 8 26C8 42 32 62 32 62C32 62 56 42 56 26C56 12.7452 45.2548 2 32 2Z" fill="#111827" stroke="#22C55E" stroke-width="2"/>

  <!-- Mascote Robô -->
  <rect x="22" y="14" width="20" height="16" rx="4" fill="#4ADE80"/>
  <circle cx="28" cy="20" r="2" fill="#111827"/>
  <circle cx="36" cy="20" r="2" fill="#111827"/>

  <!-- Objeto: Bússola e Mapa -->
  <rect x="24" y="34" width="16" height="12" rx="1" fill="#4ADE80"/>
  <path d="M28 34L24 38L28 42L24 46M36 34L40 38L36 42L40 46" stroke="#111827" stroke-width="1.5"/>
  <circle cx="32" cy="40" r="4" fill="white" stroke="#111827"/>
  <path d="M32 37L33.5 40L32 43L30.5 40L32 37Z" fill="red"/>

  <!-- Crachá Azul -->
  <path d="M12 48H52V56C52 58.2091 50.2091 60 48 60H16C13.7909 60 12 58.2091 12 56V48Z" fill="#60A5FA" stroke="#22C55E" stroke-width="2"/>
</svg>
