<svg width="64" height="64" viewBox="0 0 64 64" fill="none" xmlns="http://www.w3.org/2000/svg">
  <path d="M32 2C18.7452 2 8 12.7452 8 26C8 42 32 62 32 62C32 62 56 42 56 26C56 12.7452 45.2548 2 32 2Z" fill="#111827" stroke="#22C55E" stroke-width="2"/>
  <rect x="22" y="14" width="20" height="16" rx="4" fill="#4ADE80"/>
  <circle cx="28" cy="20" r="2" fill="#111827"/>
  <circle cx="36" cy="20" r="2" fill="#111827"/>

  <!-- Objeto: Prédios + Lupa -->
  <rect x="24" y="38" width="6" height="10" fill="#4ADE80"/>
  <rect x="30" y="34" width="6" height="14" fill="#4ADE80"/>
  <rect x="36" y="39" width="6" height="9" fill="#4ADE80"/>
  <circle cx="34" cy="40" r="5" fill="white" stroke="#111827" stroke-width="1.5"/>
  <path d="M38 43L42 47" stroke="#111827" stroke-width="2" stroke-linecap="round"/>

  <path d="M12 48H52V56C52 58.2091 50.2091 60 48 60H16C13.7909 60 12 58.2091 12 56V48Z" fill="#60A5FA" stroke="#22C55E" stroke-width="2"/>
</svg>
